<?xml version="1.0" encoding="UTF-8" standalone="no"?><!DOCTYPE svg PUBLIC "-//W3C//DTD SVG 1.1//EN" "http://www.w3.org/Graphics/SVG/1.1/DTD/svg11.dtd"><svg width="100%" height="100%" viewBox="0 0 419 478" version="1.1" xmlns="http://www.w3.org/2000/svg" xmlns:xlink="http://www.w3.org/1999/xlink" xml:space="preserve" xmlns:serif="http://www.serif.com/" style="fill-rule:evenodd;clip-rule:evenodd;stroke-linecap:round;stroke-linejoin:round;stroke-miterlimit:1.5;"><path d="M219.468,3.99c-5.927,-3.421 -13.229,-3.421 -19.156,0.001l-188.705,108.957c-5.927,3.422 -9.577,9.746 -9.577,16.59l0.007,217.902c0,6.844 3.652,13.168 9.579,16.589l188.712,108.945c5.927,3.422 13.229,3.421 19.156,-0.001l188.705,-108.957c5.927,-3.422 9.577,-9.746 9.577,-16.59l-0.007,-217.902c0,-6.844 -3.652,-13.167 -9.579,-16.589l-188.712,-108.945Zm-9.577,16.59l188.712,108.945l0.007,217.902l-188.705,108.957l-188.712,-108.944l-0.007,-217.903l188.705,-108.957Z" style="fill:#0033b5;"/><path d="M369.623,333.32l-158.623,90.414l-158.218,-90.403l316.835,-184.527l0.006,184.516Z" style="fill:#52a8e6;stroke:#0033b5;stroke-width:16.44px;"/><path d="M52.782,333.331l158.629,90.403l158.212,-90.414l-316.847,-184.505l0.006,184.516Z" style="fill:#ff00c2;fill-opacity:0.45;stroke:#0033b5;stroke-width:16.44px;"/><path d="M80.033,129.914l130.955,-74.8l126.712,74.06l-126.707,72.837l-130.96,-72.097Z" style="fill:#00ff0e;fill-opacity:0.49;stroke:#0033b5;stroke-width:16.44px;"/></svg>